<svg width="900" viewBox="0 0 900 1100" xmlns="http://www.w3.org/2000/svg" font-family="Arial, Helvetica, sans-serif">

  <!-- Background -->
  <rect width="900" height="1100" fill="#ffffff"/>

  <!-- Title -->
  <text x="450" y="36" text-anchor="middle" font-size="17" font-weight="600" fill="#1a1a1a">AWS EKS Infrastructure — ca-central-1</text>

  <!-- ═══ EXTERNAL ACTORS ═══ -->
  <rect x="40" y="56" width="130" height="42" rx="8" fill="#F1EFE8" stroke="#888780" stroke-width="0.8"/>
  <text x="105" y="82" text-anchor="middle" font-size="13" font-weight="600" fill="#2C2C2A">Users</text>

  <rect x="730" y="56" width="148" height="42" rx="8" fill="#F1EFE8" stroke="#888780" stroke-width="0.8"/>
  <text x="804" y="82" text-anchor="middle" font-size="13" font-weight="600" fill="#2C2C2A">Client / Worker</text>

  <!-- Side service pills -->
  <rect x="30" y="116" width="160" height="38" rx="8" fill="#E1F5EE" stroke="#0F6E56" stroke-width="0.8"/>
  <text x="110" y="139" text-anchor="middle" font-size="12" font-weight="600" fill="#085041">IAM Identity Center</text>

  <rect x="710" y="116" width="160" height="38" rx="8" fill="#E1F5EE" stroke="#0F6E56" stroke-width="0.8"/>
  <text x="790" y="139" text-anchor="middle" font-size="12" font-weight="600" fill="#085041">DNS Route 53</text>

  <!-- HTTPS labels -->
  <text x="278" y="70" text-anchor="middle" font-size="11" fill="#185FA5">HTTPS</text>
  <text x="614" y="70" text-anchor="middle" font-size="11" fill="#185FA5">HTTPS / gRPC</text>

  <!-- Arrows → IGW -->
  <line x1="170" y1="77" x2="360" y2="107" stroke="#378ADD" stroke-width="1.4" marker-end="url(#arr)"/>
  <line x1="730" y1="77" x2="548" y2="107" stroke="#378ADD" stroke-width="1.4" marker-end="url(#arr)"/>

  <!-- Internet Gateway -->
  <rect x="355" y="100" width="190" height="42" rx="8" fill="#E6F1FB" stroke="#185FA5" stroke-width="0.8"/>
  <text x="450" y="125" text-anchor="middle" font-size="13" font-weight="600" fill="#0C447C">Internet Gateway</text>
  <line x1="450" y1="142" x2="450" y2="163" stroke="#444441" stroke-width="1.2" marker-end="url(#arr)"/>

  <!-- ═══ VPC CONTAINER ═══ -->
  <rect x="18" y="160" width="864" height="780" rx="16" fill="none" stroke="#1D9E75" stroke-width="1" stroke-dasharray="7 4" opacity="0.6"/>
  <text x="34" y="180" font-size="11" fill="#0F6E56" font-weight="500">VPC — 10.0.0.0/16   |   ca-central-1</text>

  <!-- VPC Router -->
  <rect x="356" y="186" width="188" height="38" rx="8" fill="#E1F5EE" stroke="#0F6E56" stroke-width="0.8"/>
  <text x="450" y="209" text-anchor="middle" font-size="13" font-weight="600" fill="#085041">VPC Router</text>
  <line x1="450" y1="224" x2="450" y2="242" stroke="#444441" stroke-width="1.2" marker-end="url(#arr)"/>

  <!-- ═══ AZ COLUMN HEADERS ═══ -->
  <text x="163" y="240" text-anchor="middle" font-size="11" fill="#0F6E56" font-weight="500">Availability Zone A</text>
  <text x="450" y="240" text-anchor="middle" font-size="11" fill="#0F6E56" font-weight="500">Availability Zone B</text>
  <text x="737" y="240" text-anchor="middle" font-size="11" fill="#0F6E56" font-weight="500">Availability Zone C</text>

  <!-- PUBLIC SUBNET BAND LABEL -->
  <rect x="26" y="245" width="848" height="16" rx="4" fill="#EAF3DE" opacity="0.7"/>
  <text x="450" y="257" text-anchor="middle" font-size="11" fill="#3B6D11" font-weight="500">Public subnets</text>

  <!-- AZ-A Public -->
  <rect x="32" y="263" width="256" height="116" rx="10" fill="#EAF3DE" stroke="#3B6D11" stroke-width="0.6" opacity="0.7"/>
  <text x="48" y="279" font-size="10" fill="#27500A">10.0.4.0/24</text>
  <rect x="46" y="285" width="228" height="46" rx="7" fill="#C0DD97" stroke="#3B6D11" stroke-width="0.7"/>
  <text x="160" y="305" text-anchor="middle" font-size="12" font-weight="600" fill="#173404">NAT Gateway</text>
  <text x="160" y="321" text-anchor="middle" font-size="10" fill="#27500A">single · egress only</text>
  <text x="160" y="368" text-anchor="middle" font-size="10" fill="#27500A">Terraform state</text>

  <!-- AZ-B Public -->
  <rect x="322" y="263" width="256" height="116" rx="10" fill="#EAF3DE" stroke="#3B6D11" stroke-width="0.6" opacity="0.7"/>
  <text x="338" y="279" font-size="10" fill="#27500A">10.0.5.0/24</text>
  <rect x="336" y="285" width="228" height="46" rx="7" fill="#C0DD97" stroke="#3B6D11" stroke-width="0.7"/>
  <text x="450" y="305" text-anchor="middle" font-size="12" font-weight="600" fill="#173404">Network Load Balancer</text>
  <text x="450" y="321" text-anchor="middle" font-size="10" fill="#27500A">L4 ingress</text>

  <!-- AZ-C Public -->
  <rect x="612" y="263" width="256" height="116" rx="10" fill="#EAF3DE" stroke="#3B6D11" stroke-width="0.6" opacity="0.7"/>
  <text x="628" y="279" font-size="10" fill="#27500A">10.0.6.0/24</text>
  <rect x="626" y="285" width="228" height="46" rx="7" fill="#C0DD97" stroke="#3B6D11" stroke-width="0.7"/>
  <text x="740" y="309" text-anchor="middle" font-size="12" font-weight="600" fill="#173404">Public subnet</text>

  <!-- VPC Router → NLB -->
  <line x1="450" y1="242" x2="450" y2="285" stroke="#378ADD" stroke-width="1.4" marker-end="url(#arr)"/>

  <!-- PRIVATE SUBNET BAND LABEL -->
  <rect x="26" y="392" width="848" height="16" rx="4" fill="#E6F1FB" opacity="0.7"/>
  <text x="450" y="404" text-anchor="middle" font-size="11" fill="#185FA5" font-weight="500">Private subnets</text>

  <!-- AZ-A Private container -->
  <rect x="32" y="410" width="256" height="410" rx="10" fill="#E6F1FB" stroke="#185FA5" stroke-width="0.6" opacity="0.6"/>
  <text x="48" y="426" font-size="10" fill="#0C447C">10.0.1.0/24</text>

  <rect x="46" y="432" width="228" height="46" rx="7" fill="#CECBF6" stroke="#534AB7" stroke-width="0.7"/>
  <text x="160" y="452" text-anchor="middle" font-size="12" font-weight="600" fill="#26215C">Worker Nodes</text>
  <text x="160" y="468" text-anchor="middle" font-size="10" fill="#3C3489">t2.small · AL2023</text>

  <rect x="46" y="488" width="228" height="40" rx="7" fill="#D3D1C7" stroke="#5F5E5A" stroke-width="0.7"/>
  <text x="160" y="512" text-anchor="middle" font-size="12" font-weight="600" fill="#2C2C2A">Elastic Block Storage</text>

  <rect x="46" y="538" width="228" height="40" rx="7" fill="#F5C4B3" stroke="#993C1D" stroke-width="0.7"/>
  <text x="160" y="562" text-anchor="middle" font-size="12" font-weight="600" fill="#4A1B0C">OpenSearch Node</text>

  <rect x="46" y="588" width="228" height="40" rx="7" fill="#FAC775" stroke="#854F0B" stroke-width="0.7"/>
  <text x="160" y="612" text-anchor="middle" font-size="12" font-weight="600" fill="#412402">Aurora RDS Leader</text>

  <!-- AZ-B Private container -->
  <rect x="322" y="410" width="256" height="410" rx="10" fill="#E6F1FB" stroke="#185FA5" stroke-width="0.6" opacity="0.6"/>
  <text x="338" y="426" font-size="10" fill="#0C447C">10.0.2.0/24</text>

  <rect x="336" y="432" width="228" height="46" rx="7" fill="#CECBF6" stroke="#534AB7" stroke-width="1.2"/>
  <text x="450" y="452" text-anchor="middle" font-size="12" font-weight="600" fill="#26215C">EKS Cluster</text>
  <text x="450" y="468" text-anchor="middle" font-size="10" fill="#3C3489">v1.34 · KMS encrypted</text>

  <rect x="336" y="488" width="228" height="40" rx="7" fill="#9FE1CB" stroke="#0F6E56" stroke-width="0.7"/>
  <text x="450" y="512" text-anchor="middle" font-size="12" font-weight="600" fill="#04342C">Ingress Controller</text>

  <rect x="336" y="538" width="228" height="40" rx="7" fill="#D3D1C7" stroke="#5F5E5A" stroke-width="0.7"/>
  <text x="450" y="562" text-anchor="middle" font-size="12" font-weight="600" fill="#2C2C2A">Elastic Block Storage</text>

  <rect x="336" y="588" width="228" height="40" rx="7" fill="#F5C4B3" stroke="#993C1D" stroke-width="0.7"/>
  <text x="450" y="612" text-anchor="middle" font-size="12" font-weight="600" fill="#4A1B0C">OpenSearch Domain</text>

  <rect x="336" y="638" width="228" height="40" rx="7" fill="#FAC775" stroke="#854F0B" stroke-width="0.7"/>
  <text x="450" y="662" text-anchor="middle" font-size="12" font-weight="600" fill="#412402">Aurora RDS Cluster</text>

  <!-- AZ-C Private container -->
  <rect x="612" y="410" width="256" height="410" rx="10" fill="#E6F1FB" stroke="#185FA5" stroke-width="0.6" opacity="0.6"/>
  <text x="628" y="426" font-size="10" fill="#0C447C">10.0.3.0/24</text>

  <rect x="626" y="432" width="228" height="46" rx="7" fill="#CECBF6" stroke="#534AB7" stroke-width="0.7"/>
  <text x="740" y="452" text-anchor="middle" font-size="12" font-weight="600" fill="#26215C">Worker Nodes</text>
  <text x="740" y="468" text-anchor="middle" font-size="10" fill="#3C3489">t2.small · AL2023</text>

  <rect x="626" y="488" width="228" height="40" rx="7" fill="#D3D1C7" stroke="#5F5E5A" stroke-width="0.7"/>
  <text x="740" y="512" text-anchor="middle" font-size="12" font-weight="600" fill="#2C2C2A">Elastic Block Storage</text>

  <rect x="626" y="538" width="228" height="40" rx="7" fill="#F5C4B3" stroke="#993C1D" stroke-width="0.7"/>
  <text x="740" y="562" text-anchor="middle" font-size="12" font-weight="600" fill="#4A1B0C">OpenSearch Node</text>

  <rect x="626" y="588" width="228" height="40" rx="7" fill="#D3D1C7" stroke="#5F5E5A" stroke-width="0.7"/>
  <text x="740" y="612" text-anchor="middle" font-size="12" font-weight="600" fill="#2C2C2A">Network Security Group</text>

  <!-- ═══ TRAFFIC ARROWS ═══ -->
  <!-- NLB → EKS -->
  <line x1="450" y1="331" x2="450" y2="432" stroke="#378ADD" stroke-width="1.6" marker-end="url(#arr)"/>
  <text x="472" y="385" font-size="10" fill="#185FA5">HTTPS 443</text>

  <!-- EKS → Ingress -->
  <line x1="450" y1="478" x2="450" y2="488" stroke="#444441" stroke-width="1.2" marker-end="url(#arr)"/>

  <!-- EKS → AZ-A Workers -->
  <line x1="336" y1="455" x2="274" y2="455" stroke="#444441" stroke-width="1.2" marker-end="url(#arr)"/>

  <!-- EKS → AZ-C Workers -->
  <line x1="564" y1="455" x2="626" y2="455" stroke="#444441" stroke-width="1.2" marker-end="url(#arr)"/>

  <!-- Ingress → OpenSearch dashed -->
  <line x1="450" y1="528" x2="450" y2="538" stroke="#888780" stroke-width="1" stroke-dasharray="4 3" marker-end="url(#arr-gray)"/>

  <!-- OpenSearch → Aurora dashed -->
  <line x1="450" y1="628" x2="450" y2="638" stroke="#888780" stroke-width="1" stroke-dasharray="4 3" marker-end="url(#arr-gray)"/>
  <text x="568" y="618" font-size="10" fill="#888780">TCP/TLS 5432</text>

  <!-- NAT egress arrow up-left -->
  <path d="M160 432 L160 355" fill="none" stroke="#3B6D11" stroke-width="1" stroke-dasharray="4 3" marker-end="url(#arr-green)"/>

  <!-- ═══ PLATFORM SERVICES ROW ═══ -->
  <rect x="26" y="832" width="848" height="16" rx="4" fill="#EEEDFE" opacity="0.7"/>
  <text x="450" y="844" text-anchor="middle" font-size="11" fill="#534AB7" font-weight="500">Platform services</text>

  <rect x="32" y="852" width="192" height="56" rx="8" fill="#EEEDFE" stroke="#534AB7" stroke-width="0.7"/>
  <text x="128" y="874" text-anchor="middle" font-size="12" font-weight="600" fill="#26215C">KMS</text>
  <text x="128" y="892" text-anchor="middle" font-size="10" fill="#3C3489">Secrets encryption</text>

  <rect x="238" y="852" width="192" height="56" rx="8" fill="#EEEDFE" stroke="#534AB7" stroke-width="0.7"/>
  <text x="334" y="874" text-anchor="middle" font-size="12" font-weight="600" fill="#26215C">CloudWatch Logs</text>
  <text x="334" y="892" text-anchor="middle" font-size="10" fill="#3C3489">90-day retention</text>

  <rect x="444" y="852" width="192" height="56" rx="8" fill="#EEEDFE" stroke="#534AB7" stroke-width="0.7"/>
  <text x="540" y="874" text-anchor="middle" font-size="12" font-weight="600" fill="#26215C">OIDC / IRSA</text>
  <text x="540" y="892" text-anchor="middle" font-size="10" fill="#3C3489">IAM roles for pods</text>

  <rect x="650" y="852" width="224" height="56" rx="8" fill="#EEEDFE" stroke="#534AB7" stroke-width="0.7"/>
  <text x="762" y="874" text-anchor="middle" font-size="12" font-weight="600" fill="#26215C">EKS Add-ons</text>
  <text x="762" y="892" text-anchor="middle" font-size="10" fill="#3C3489">CoreDNS · CNI · kube-proxy</text>

  <!-- dependency lines from EKS to platform services -->
  <line x1="410" y1="478" x2="128" y2="852" stroke="#AFA9EC" stroke-width="0.6" stroke-dasharray="3 5"/>
  <line x1="430" y1="478" x2="334" y2="852" stroke="#AFA9EC" stroke-width="0.6" stroke-dasharray="3 5"/>
  <line x1="470" y1="478" x2="540" y2="852" stroke="#AFA9EC" stroke-width="0.6" stroke-dasharray="3 5"/>
  <line x1="490" y1="478" x2="762" y2="852" stroke="#AFA9EC" stroke-width="0.6" stroke-dasharray="3 5"/>

  <!-- ═══ LEGEND ═══ -->
  <rect x="26" y="924" width="848" height="152" rx="8" fill="none" stroke="#D3D1C7" stroke-width="0.7"/>
  <text x="42" y="944" font-size="11" fill="#444441" font-weight="500">Legend</text>

  <!-- colour swatches row 1 -->
  <rect x="42" y="954" width="12" height="12" rx="2" fill="#CECBF6" stroke="#534AB7" stroke-width="0.5"/>
  <text x="60" y="965" font-size="11" fill="#444441">Compute / EKS</text>

  <rect x="176" y="954" width="12" height="12" rx="2" fill="#C0DD97" stroke="#3B6D11" stroke-width="0.5"/>
  <text x="194" y="965" font-size="11" fill="#444441">Network / NAT</text>

  <rect x="310" y="954" width="12" height="12" rx="2" fill="#9FE1CB" stroke="#0F6E56" stroke-width="0.5"/>
  <text x="328" y="965" font-size="11" fill="#444441">Routing / DNS</text>

  <rect x="444" y="954" width="12" height="12" rx="2" fill="#B5D4F4" stroke="#185FA5" stroke-width="0.5"/>
  <text x="462" y="965" font-size="11" fill="#444441">VPC / subnets</text>

  <rect x="578" y="954" width="12" height="12" rx="2" fill="#F5C4B3" stroke="#993C1D" stroke-width="0.5"/>
  <text x="596" y="965" font-size="11" fill="#444441">OpenSearch / data</text>

  <rect x="720" y="954" width="12" height="12" rx="2" fill="#FAC775" stroke="#854F0B" stroke-width="0.5"/>
  <text x="738" y="965" font-size="11" fill="#444441">Aurora RDS</text>

  <!-- colour swatches row 2 -->
  <rect x="42" y="978" width="12" height="12" rx="2" fill="#D3D1C7" stroke="#5F5E5A" stroke-width="0.5"/>
  <text x="60" y="989" font-size="11" fill="#444441">Security / storage</text>

  <rect x="176" y="978" width="12" height="12" rx="2" fill="#EEEDFE" stroke="#534AB7" stroke-width="0.5"/>
  <text x="194" y="989" font-size="11" fill="#444441">Platform services</text>

  <!-- arrow types -->
  <line x1="42" y1="1014" x2="90" y2="1014" stroke="#378ADD" stroke-width="1.6" marker-end="url(#arr)"/>
  <text x="96" y="1018" font-size="11" fill="#444441">Public traffic (HTTPS)</text>

  <line x1="240" y1="1014" x2="288" y2="1014" stroke="#444441" stroke-width="1.2" marker-end="url(#arr)"/>
  <text x="294" y="1018" font-size="11" fill="#444441">Internal / cluster traffic</text>

  <line x1="450" y1="1014" x2="498" y2="1014" stroke="#888780" stroke-width="1" stroke-dasharray="4 3" marker-end="url(#arr-gray)"/>
  <text x="504" y="1018" font-size="11" fill="#444441">Data / TCP flow</text>

  <line x1="642" y1="1014" x2="690" y2="1014" stroke="#AFA9EC" stroke-width="0.6" stroke-dasharray="3 5"/>
  <text x="696" y="1018" font-size="11" fill="#444441">Service dependency</text>

  <text x="450" y="1058" text-anchor="middle" font-size="10" fill="#888780">Built with Terraform · terraform-aws-modules/eks · terraform-aws-modules/vpc</text>
  <text x="450" y="1076" text-anchor="middle" font-size="10" fill="#888780">EKS v1.34 · ca-central-1 · 3 AZs · VPC 10.0.0.0/16</text>

  <!-- ═══ ARROW MARKERS ═══ -->
  <defs>
    <marker id="arr" viewBox="0 0 10 10" refX="8" refY="5" markerWidth="6" markerHeight="6" orient="auto-start-reverse">
      <path d="M2 1L8 5L2 9" fill="none" stroke="context-stroke" stroke-width="1.5" stroke-linecap="round" stroke-linejoin="round"/>
    </marker>
    <marker id="arr-gray" viewBox="0 0 10 10" refX="8" refY="5" markerWidth="6" markerHeight="6" orient="auto-start-reverse">
      <path d="M2 1L8 5L2 9" fill="none" stroke="#888780" stroke-width="1.5" stroke-linecap="round" stroke-linejoin="round"/>
    </marker>
    <marker id="arr-green" viewBox="0 0 10 10" refX="8" refY="5" markerWidth="6" markerHeight="6" orient="auto-start-reverse">
      <path d="M2 1L8 5L2 9" fill="none" stroke="#3B6D11" stroke-width="1.5" stroke-linecap="round" stroke-linejoin="round"/>
    </marker>
  </defs>

</svg>
